<svg id="svg" xmlns="http://www.w3.org/2000/svg" xmlns:xlink="http://www.w3.org/1999/xlink" width="400" height="107.61421319796955" viewBox="0, 0, 400,107.61421319796955"><g id="svgg"><path id="path0" d="M346.362 19.853 C 328.604 22.024,317.983 34.763,318.018 53.850 C 318.061 77.510,335.821 91.735,358.883 86.581 C 368.607 84.408,376.336 77.495,380.013 67.682 C 381.083 64.827,381.300 64.975,376.019 64.975 L 371.328 64.975 370.279 67.090 C 362.636 82.492,339.785 83.329,331.047 68.528 C 327.611 62.708,326.311 51.698,328.309 45.347 C 331.923 33.864,338.967 28.329,349.915 28.372 C 359.464 28.409,366.750 32.781,370.452 40.694 L 371.204 42.301 375.957 42.301 C 378.827 42.301,380.711 42.170,380.711 41.971 C 380.711 40.312,377.354 33.686,375.050 30.795 C 368.838 23.003,357.129 18.537,346.362 19.853 M20.122 20.728 C 20.033 20.960,20.000 35.922,20.048 53.976 L 20.135 86.802 24.619 86.896 L 29.103 86.991 29.103 53.648 L 29.103 20.305 24.693 20.305 C 21.477 20.305,20.240 20.419,20.122 20.728 M252.453 20.956 C 252.453 21.325,252.601 21.976,252.780 22.404 C 252.960 22.831,253.738 24.932,254.509 27.073 C 255.281 29.213,256.445 32.411,257.096 34.179 C 259.325 40.230,260.516 43.487,261.426 46.024 C 262.493 49.000,264.093 53.366,265.765 57.868 C 266.422 59.636,267.646 62.986,268.485 65.313 C 270.232 70.157,275.556 84.649,276.100 86.041 L 276.464 86.971 282.073 86.971 L 287.683 86.971 288.141 85.871 C 288.393 85.266,289.306 82.792,290.170 80.372 C 291.033 77.953,291.873 75.668,292.036 75.296 C 292.198 74.924,292.738 73.477,293.235 72.081 C 294.122 69.588,295.303 66.356,297.595 60.151 C 298.230 58.430,299.389 55.271,300.169 53.130 C 300.950 50.990,302.123 47.792,302.777 46.024 C 303.431 44.255,304.482 41.400,305.113 39.679 C 306.872 34.879,308.402 30.739,310.305 25.624 C 312.414 19.954,312.623 20.305,307.128 20.305 C 301.966 20.305,302.328 20.103,301.036 23.689 C 300.534 25.085,299.001 29.349,297.630 33.164 C 296.260 36.980,294.581 41.624,293.899 43.486 C 293.217 45.347,292.536 47.250,292.386 47.716 C 292.236 48.181,291.553 50.085,290.869 51.946 C 288.486 58.427,286.907 62.781,286.633 63.621 C 286.481 64.086,285.722 66.218,284.945 68.359 C 284.168 70.499,283.293 72.974,283.001 73.858 C 282.708 74.742,282.270 75.465,282.026 75.465 C 281.782 75.465,281.360 74.742,281.088 73.858 C 280.816 72.974,280.034 70.728,279.351 68.866 C 278.667 67.005,277.982 65.102,277.830 64.636 C 277.548 63.777,274.767 55.929,273.214 51.607 C 272.745 50.305,272.237 48.858,272.084 48.393 C 271.931 47.927,271.168 45.795,270.389 43.655 C 269.610 41.514,268.850 39.382,268.699 38.917 C 268.471 38.211,267.001 34.054,264.452 26.904 C 264.186 26.159,263.543 24.408,263.022 23.012 L 262.074 20.474 257.264 20.380 C 252.663 20.290,252.453 20.315,252.453 20.956 M105.481 22.213 C 105.351 22.342,105.245 25.235,105.245 28.641 L 105.245 34.834 101.438 34.930 L 97.631 35.025 97.631 38.917 L 97.631 42.809 101.438 42.904 L 105.245 43.000 105.246 58.133 C 105.246 74.891,105.402 76.618,107.256 80.384 C 109.643 85.232,114.098 87.097,122.843 86.908 L 127.750 86.802 127.846 83.107 C 127.963 78.638,128.210 78.863,123.181 78.847 C 114.498 78.819,114.421 78.624,114.397 56.775 L 114.382 42.992 121.066 42.901 L 127.750 42.809 127.846 39.305 C 127.977 34.562,128.445 34.856,120.778 34.856 L 114.397 34.856 114.305 28.511 L 114.213 22.166 109.964 22.072 C 107.628 22.020,105.610 22.083,105.481 22.213 M65.313 34.529 C 64.848 34.682,63.560 35.085,62.452 35.424 C 58.636 36.592,55.199 39.349,52.854 43.124 L 51.607 45.131 51.438 40.078 L 51.269 35.025 46.870 35.025 L 42.470 35.025 42.470 60.914 L 42.470 86.802 46.954 86.896 L 51.438 86.991 51.438 72.077 C 51.438 55.642,51.604 53.849,53.492 49.876 C 55.977 44.645,60.270 42.171,66.836 42.186 C 73.829 42.201,77.248 44.659,80.413 51.946 C 80.575 52.318,80.784 60.313,80.878 69.712 L 81.049 86.802 85.533 86.896 L 90.017 86.991 90.000 70.653 C 89.975 47.838,89.452 45.108,84.075 39.730 C 79.748 35.403,70.474 32.833,65.313 34.529 M159.560 34.851 C 154.406 36.217,151.083 38.408,148.090 42.412 L 146.870 44.045 146.870 39.830 C 146.870 34.583,147.096 34.806,141.915 34.930 L 137.902 35.025 137.815 61.008 L 137.728 86.991 142.214 86.896 L 146.701 86.802 146.893 70.897 C 147.097 54.042,147.087 54.151,148.808 50.893 C 150.964 46.813,156.815 43.993,163.128 43.993 L 165.839 43.993 165.745 39.171 L 165.651 34.349 163.790 34.286 C 162.766 34.251,160.863 34.505,159.560 34.851 M193.063 34.697 C 179.878 36.585,172.011 45.711,171.341 59.894 C 170.567 76.258,181.219 87.649,197.293 87.648 C 210.983 87.647,219.891 80.458,222.982 66.916 C 225.526 55.772,220.033 42.469,210.889 37.630 C 205.447 34.750,199.512 33.773,193.063 34.697 M201.474 42.981 C 218.321 47.226,218.809 73.966,202.131 79.026 C 193.606 81.613,183.733 76.274,181.467 67.851 C 177.261 52.218,187.520 39.466,201.474 42.981 " stroke="none" fill="#000000" fill-rule="evenodd"></path></g></svg>